<svg width="128" height="128" viewBox="0 0 128 128" fill="none" xmlns="http://www.w3.org/2000/svg">
  <rect width="128" height="128" rx="28" fill="#08111E"/>
  <rect x="14" y="14" width="100" height="100" rx="24" fill="url(#paint0_linear)"/>
  <path d="M64 22L93 34V58C93 80 80.4 98.5 64 106C47.6 98.5 35 80 35 58V34L64 22Z" fill="#07111D" stroke="#7DD3FC" stroke-width="3"/>
  <path d="M46 48H82C84.7614 48 87 50.2386 87 53V73C87 75.7614 84.7614 78 82 78H46C43.2386 78 41 75.7614 41 73V53C41 50.2386 43.2386 48 46 48Z" stroke="#5EEAD4" stroke-width="3.5"/>
  <path d="M43 52L64 67L85 52" stroke="#7DD3FC" stroke-width="3.5" stroke-linecap="round" stroke-linejoin="round"/>
  <path d="M49 88L64 76L79 88" stroke="#60A5FA" stroke-width="3.5" stroke-linecap="round" stroke-linejoin="round"/>
  <path d="M76 30C82.6 31.2 88.8 35.6 92 41.2" stroke="#5EEAD4" stroke-width="3.5" stroke-linecap="round"/>
  <path d="M72 37.5C76.6 38.4 80.9 41.4 83.3 45.2" stroke="#7DD3FC" stroke-width="3" stroke-linecap="round"/>
  <defs>
    <linearGradient id="paint0_linear" x1="18" y1="18" x2="110" y2="110" gradientUnits="userSpaceOnUse">
      <stop stop-color="#0F766E"/>
      <stop offset="0.52" stop-color="#0891B2"/>
      <stop offset="1" stop-color="#2563EB"/>
    </linearGradient>
  </defs>
</svg>
