<svg width="1200" height="630" viewBox="0 0 1200 630" fill="none" xmlns="http://www.w3.org/2000/svg">
  <rect width="1200" height="630" fill="#020617"/>
  <circle cx="992" cy="108" r="212" fill="url(#paint0_radial)" fill-opacity="0.72"/>
  <circle cx="223" cy="520" r="190" fill="url(#paint1_radial)" fill-opacity="0.55"/>
  <rect x="62" y="62" width="1076" height="506" rx="30" fill="url(#paint2_linear)" stroke="rgba(148,163,184,0.24)"/>
  <rect x="102" y="108" width="132" height="132" rx="28" fill="#0F172A"/>
  <path d="M136 150H200C208.837 150 216 157.163 216 166V198C216 206.837 208.837 214 200 214H136C127.163 214 120 206.837 120 198V166C120 157.163 127.163 150 136 150Z" stroke="#67E8F9" stroke-width="6"/>
  <path d="M128 164L168 192L208 164" stroke="#34D399" stroke-width="6" stroke-linecap="round" stroke-linejoin="round"/>
  <text x="274" y="173" fill="#E2E8F0" font-family="Arial, Helvetica, sans-serif" font-size="64" font-weight="700">Vigilyx</text>
  <text x="274" y="242" fill="#94A3B8" font-family="Arial, Helvetica, sans-serif" font-size="30">Rust-powered email security gateway and analysis platform</text>
  <text x="104" y="342" fill="#CBD5E1" font-family="Arial, Helvetica, sans-serif" font-size="28">Mirror traffic monitoring. Inline MTA inspection. Detection, alerting, quarantine, and audit workflows.</text>
  <text x="104" y="398" fill="#67E8F9" font-family="Arial, Helvetica, sans-serif" font-size="26">email security gateway  •  SMTP proxy  •  邮件安全网关  •  邮件安全分析平台</text>
  <text x="104" y="492" fill="#E2E8F0" font-family="Arial, Helvetica, sans-serif" font-size="24">github.com/HerbiusYang/Vigilyx</text>
  <defs>
    <radialGradient id="paint0_radial" cx="0" cy="0" r="1" gradientUnits="userSpaceOnUse" gradientTransform="translate(992 108) rotate(90) scale(212)">
      <stop stop-color="#22D3EE"/>
      <stop offset="1" stop-color="#22D3EE" stop-opacity="0"/>
    </radialGradient>
    <radialGradient id="paint1_radial" cx="0" cy="0" r="1" gradientUnits="userSpaceOnUse" gradientTransform="translate(223 520) rotate(90) scale(190)">
      <stop stop-color="#34D399"/>
      <stop offset="1" stop-color="#34D399" stop-opacity="0"/>
    </radialGradient>
    <linearGradient id="paint2_linear" x1="62" y1="62" x2="1138" y2="568" gradientUnits="userSpaceOnUse">
      <stop stop-color="#0F172A"/>
      <stop offset="1" stop-color="#111827"/>
    </linearGradient>
  </defs>
</svg>
