<svg width="1200" height="630" viewBox="0 0 1200 630" fill="none" xmlns="http://www.w3.org/2000/svg">
  <rect width="1200" height="630" fill="#020617"/>
  <circle cx="992" cy="108" r="212" fill="url(#paint0_radial)" fill-opacity="0.72"/>
  <circle cx="223" cy="520" r="190" fill="url(#paint1_radial)" fill-opacity="0.55"/>
  <rect x="62" y="62" width="1076" height="506" rx="30" fill="url(#paint2_linear)" stroke="rgba(148,163,184,0.24)"/>
  <rect x="100" y="98" width="138" height="138" rx="32" fill="url(#paint3_linear)"/>
  <path d="M169 122L203 136V164C203 189 188.3 210 169 218C149.7 210 135 189 135 164V136L169 122Z" fill="#07111D" stroke="#7DD3FC" stroke-width="5"/>
  <path d="M147 151H191C194.866 151 198 154.134 198 158V182C198 185.866 194.866 189 191 189H147C143.134 189 140 185.866 140 182V158C140 154.134 143.134 151 147 151Z" stroke="#5EEAD4" stroke-width="5"/>
  <path d="M143 157L169 175L195 157" stroke="#7DD3FC" stroke-width="5" stroke-linecap="round" stroke-linejoin="round"/>
  <path d="M151 201L169 187L187 201" stroke="#60A5FA" stroke-width="5" stroke-linecap="round" stroke-linejoin="round"/>
  <path d="M183 131C191.8 132.6 199.7 138.3 204 145.8" stroke="#5EEAD4" stroke-width="5" stroke-linecap="round"/>
  <text x="274" y="173" fill="#E2E8F0" font-family="Arial, Helvetica, sans-serif" font-size="64" font-weight="700">Vigilyx</text>
  <text x="274" y="242" fill="#94A3B8" font-family="Arial, Helvetica, sans-serif" font-size="30">Rust-powered email security gateway and analysis platform</text>
  <text x="104" y="342" fill="#CBD5E1" font-family="Arial, Helvetica, sans-serif" font-size="28">Mirror traffic monitoring. Inline MTA inspection. Detection, alerting, quarantine, and audit workflows.</text>
  <text x="104" y="398" fill="#67E8F9" font-family="Arial, Helvetica, sans-serif" font-size="26">email security gateway  •  SMTP proxy  •  AI optional  •  邮件安全网关</text>
  <text x="104" y="492" fill="#E2E8F0" font-family="Arial, Helvetica, sans-serif" font-size="24">github.com/HerbiusYang/Vigilyx</text>
  <defs>
    <radialGradient id="paint0_radial" cx="0" cy="0" r="1" gradientUnits="userSpaceOnUse" gradientTransform="translate(992 108) rotate(90) scale(212)">
      <stop stop-color="#22D3EE"/>
      <stop offset="1" stop-color="#22D3EE" stop-opacity="0"/>
    </radialGradient>
    <radialGradient id="paint1_radial" cx="0" cy="0" r="1" gradientUnits="userSpaceOnUse" gradientTransform="translate(223 520) rotate(90) scale(190)">
      <stop stop-color="#34D399"/>
      <stop offset="1" stop-color="#34D399" stop-opacity="0"/>
    </radialGradient>
    <linearGradient id="paint2_linear" x1="62" y1="62" x2="1138" y2="568" gradientUnits="userSpaceOnUse">
      <stop stop-color="#0F172A"/>
      <stop offset="1" stop-color="#111827"/>
    </linearGradient>
    <linearGradient id="paint3_linear" x1="100" y1="98" x2="238" y2="236" gradientUnits="userSpaceOnUse">
      <stop stop-color="#0F766E"/>
      <stop offset="0.52" stop-color="#0891B2"/>
      <stop offset="1" stop-color="#2563EB"/>
    </linearGradient>
  </defs>
</svg>
